<svg width="331" height="259" viewBox="0 0 331 259" xmlns="http://www.w3.org/2000/svg"><g fill-rule="nonzero" fill="none"><g fill="#324A5E"><path d="M66.2 6.2h4v127h-4zM111.8 6.2h4v127h-4zM157.8 6.2h4v127h-4zM203.8 6.2h4v127h-4zM305.3 113.64L241.14 4.04l-3.45 2.02 64.16 109.6z"/></g><path d="M269.72 233.6H27.68c-3.08 0-5.48-2.13-5.48-4.87V5.47C22.2 2.73 24.6.6 27.68.6h242.04c3.08 0 5.48 2.13 5.48 4.87v223.26c0 2.74-2.4 4.87-5.48 4.87zM34.6 220.8h229v-208h-229v208z" fill="#ACB2B7"/><g fill="#1D2D3E"><path d="M243 243v9.6c0 3.2 2.8 6 6 6h22c3.2 0 6-2.8 6-6V243h-34zM21.4 243.4v9.6c0 3.2 2.8 6 6 6h22c3.2 0 6-2.8 6-6v-9.6h-34z"/></g><path d="M288.98 243.6H7.22C3.39 243.6.6 240 .6 236v-16.8c0-4.4 3.13-7.6 6.62-7.6h281.76c3.83 0 6.62 3.6 6.62 7.6V236c0 4-3.13 7.6-6.62 7.6z" fill="#35495E"/><circle fill="#41B883" cx="68.2" cy="133.2" r="22.8"/><path d="M80.2 113.6c5.6 3.2 9.6 8.8 10.8 15.6 2 12.4-6.4 24.4-18.8 26.4-8 1.2-15.6-1.6-20.8-7.2 4.4 2.8 10 4 15.6 3.2 12.4-2 20.8-14 18.8-26.4-.8-4.4-2.8-8.4-5.6-11.6z" fill="#47886B"/><ellipse fill="#FFF" transform="rotate(-45.01 56.67 121.86)" cx="56.67" cy="121.86" rx="5.6" ry="3.2"/><circle fill="#41B883" cx="114.2" cy="133.2" r="22.8"/><path d="M126.2 113.6c5.6 3.2 9.6 8.8 10.8 15.6 2 12.4-6.4 24.4-18.8 26.4-8 1.2-15.6-1.6-20.8-7.2 4.4 2.8 10 4 15.6 3.2 12.4-2 20.8-14 18.8-26.4-.8-4.4-2.8-8.4-5.6-11.6z" fill="#47886B"/><ellipse fill="#FFF" transform="rotate(-45.01 102.64 121.97)" cx="102.64" cy="121.97" rx="5.6" ry="3.2"/><circle fill="#41B883" cx="159.8" cy="133.2" r="22.8"/><path d="M171.8 113.6c5.6 3.2 9.6 8.8 10.8 15.6 2 12.4-6.4 24.4-18.8 26.4-8 1.2-15.6-1.6-20.8-7.2 4.4 2.8 10 4 15.6 3.2 12.4-2 20.8-14 18.8-26.4-.8-4.4-2.8-8.4-5.6-11.6z" fill="#47886B"/><ellipse fill="#FFF" transform="rotate(-45.01 148.58 122.07)" cx="148.58" cy="122.07" rx="5.6" ry="3.2"/><circle fill="#41B883" cx="205.8" cy="133.2" r="22.8"/><path d="M217.8 113.6c5.6 3.2 9.6 8.8 10.8 15.6 2 12.4-6.4 24.4-18.8 26.4-8 1.2-15.6-1.6-20.8-7.2 4.4 2.8 10 4 15.6 3.2 12.4-2 20.8-14 18.8-26.4-.8-4.4-2.8-8.4-5.6-11.6z" fill="#47886B"/><ellipse fill="#FFF" transform="rotate(-45.02 194.28 121.9)" cx="194.28" cy="121.89" rx="5.6" ry="3.2"/><circle fill="#41B883" cx="307.4" cy="121.8" r="22.8"/><ellipse fill="#FFF" transform="rotate(-45.01 295.65 110.91)" cx="295.65" cy="110.91" rx="5.6" ry="3.2"/></g></svg>